<svg xmlns="http://www.w3.org/2000/svg" viewBox="0 0 256 256" width="256" height="256"><path d="M59.65 167.36a32.52 32.52 0 0 0-7.61.85.32.32 0 0 1 0 .12.46.46 0 0 0 0 .13c0 .28.26.59.77 1a13.46 13.46 0 0 0 2 1c.79.33 1.68.66 2.63 1s1.89.59 2.78.84 1.68.44 2.38.59a10.33 10.33 0 0 0 1.45.21c.59 0 1.31 0 2.14-.1a14.41 14.41 0 0 0 2.5-.41 12.1 12.1 0 0 0 2.31-.89 4.4 4.4 0 0 0 1.68-1.45 27.49 27.49 0 0 0-6.33-2.19 31.18 31.18 0 0 0-6.7-.7z"/><path d="M128 2.66a126 126 0 1 0 126 126 126 126 0 0 0-126-126zm82.17 69.52v.31a7 7 0 0 1-.1 1.38c-.13.66-.19 1.36-.32 2.09s-.22 1.41-.35 2.07-.18 1.08-.23 1.33a9.75 9.75 0 0 0-.9 1.81c-.23.64-.44 1.28-.64 2s-.38 1.31-.57 2a15.9 15.9 0 0 1-.72 1.92 30.44 30.44 0 0 1-1.66 3 21 21 0 0 0-1.58 3l-19.79 27.48a2.28 2.28 0 0 1-.23.54 1.43 1.43 0 0 1-.26.28c-.08.08-.2.16-.31.28a2.91 2.91 0 0 0-.41.49l-1.64 2.24c-.64.89-1.33 1.84-2 2.86s-1.45 2.1-2.17 3.2-1.38 2.19-2 3.24a24.16 24.16 0 0 0-1.38 2.94 6.82 6.82 0 0 0-.53 2.3c0 .3-.22.53-.21.72s.19.43.19.69c-.16 0-.26.14-.26.37s.1.38.26.4v10.08a2.68 2.68 0 0 1-.24 1c-.16.36-.2.74-.37 1.15s-.49.81-.6 1.2-.44.79-.44 1.12v1.64a.4.4 0 0 1 0 .43c-.15.23-.21.49-.39.77s-.55.56-.71.81-.51.38-.51.41v.39c0 .08.69.21.79.41s.85.33.85.41v2.81a23.07 23.07 0 0 1-.61 3.48c-.18 1.17-.55 2.32-.76 3.47s-.48 2.32-.66 3.48a22.51 22.51 0 0 0-.32 3.48 60.87 60.87 0 0 0 .29 6.25 41.49 41.49 0 0 0 1.07 6.1 31.66 31.66 0 0 0 2.11 5.7 23.19 23.19 0 0 0 3.38 5.18 5.68 5.68 0 0 1-1.25.82 10 10 0 0 1-1.66.67 13.93 13.93 0 0 1-1.71.46 4.93 4.93 0 0 1-1.43.08l-.46-.1-1-.25-1.18-.26-1-.21a7.34 7.34 0 0 1-.74-.15 4 4 0 0 1-.74-.28 2.89 2.89 0 0 1-.61-.48 1.35 1.35 0 0 1-.33-.71 29.58 29.58 0 0 0 .12-4c0-1.4-.15-2.81-.28-4.22s-.33-2.83-.51-4.24-.38-2.74-.53-4a3.11 3.11 0 0 1-.2-.62 1.47 1.47 0 0 0-.25-.59c.07-1.1.1-2.3.13-3.62s0-2.65-.13-4a25.93 25.93 0 0 0-.59-3.94 11.38 11.38 0 0 0-1.4-3.39 3.35 3.35 0 0 0-1.45 1.79 21.89 21.89 0 0 0-.77 2.7c-.21 1-.2 1.91-.43 2.86s-.92 1.73-.92 2.32V185c0 2.81-.21 5.56-.1 8.22s.2 5.37.56 8.14a1.88 1.88 0 0 0 .41.33c.26.18.51.38.81.59a6.4 6.4 0 0 1 .79.69.92.92 0 0 1 .34.62c0 .23-.27.49-.81.79a13.62 13.62 0 0 1-1.83.85 21.58 21.58 0 0 1-2 .82 12.27 12.27 0 0 1-1.27.41h-.18l-4.71-2.56a.46.46 0 0 1-.22-.48v-.59a22.15 22.15 0 0 1 0-3 21.51 21.51 0 0 0 .11-3 26 26 0 0 0-.31-3.76c-.16-1.23-.38-2.47-.58-3.68s-.41-2.47-.59-3.71a29.52 29.52 0 0 1-.25-3.86c0-1.22 0-2.32.11-3.29s.2-1.89.34-2.78.34-1.82.53-2.78.41-2 .66-3.17a1.37 1.37 0 0 0 0-.71 4.06 4.06 0 0 1-.12-.71 8 8 0 0 0-1.86.21c-.61.15-1.22.31-1.84.51l-1.91.61a16.09 16.09 0 0 1-1.89.51c-.51.07-1 .13-1.35.2l-1.07.13c-.35 0-.66-.12-1-.11s-.67-.17-1.05-.17h-1.81c-1.79 0-3.53.11-5.21 0s-3.4-.15-5.21-.15c-.77 0-1.58.06-2.42.1a4.06 4.06 0 0 0-2.33.85v5.16c0 1.7-.1 3.38-.16 5.05s-.2 3.37-.26 5.06-.15 3.41-.15 5.15v5.04c0 .54.66 1.1 1.12 1.66s.95 1.12 1.39 1.69a16.34 16.34 0 0 1 1.19 1.74 3.41 3.41 0 0 1 .52 1.78v.37a9.1 9.1 0 0 1-4 .39c.08.48 0 .72-.23.79a3.53 3.53 0 0 1-.71.07h-2a9.82 9.82 0 0 1-2.23-.23 4.26 4.26 0 0 1-1.81-.84 2.19 2.19 0 0 1-.76-1.84 6.93 6.93 0 0 1 .13-1.28c.1-.43.2-.85.31-1.28s.23-.85.31-1.3a6.35 6.35 0 0 0 .13-1.38 25.83 25.83 0 0 0-.26-3.8c-.18-1.22-.41-2.4-.67-3.57s-.53-2.62-.81-3.79a26.85 26.85 0 0 1-.71-3.94h-.43c-.21 0-.38.75-.51.91s-.26.48-.39.68-.23.41-.31.53c-.49.74-1 1.53-1.54 2.25s-1 1.5-1.45 2.25a16.53 16.53 0 0 0-1.07 2.41 8.4 8.4 0 0 0-.43 2.67 4.29 4.29 0 0 0 .33 1.61 14.11 14.11 0 0 0 .72 1.5c.26.44.51.84.72 1.15a1.65 1.65 0 0 1 .33.58.84.84 0 0 1-.41.72 3.15 3.15 0 0 1-1 .46 10.33 10.33 0 0 1-1.31.26c-.46 0-.9.1-1.33.1h-1.24a11.49 11.49 0 0 1-1.71-.13 2.06 2.06 0 0 1-1.76-1.25 9.35 9.35 0 0 1-.54-1.6c-.16-.54-.33-1.07-.51-1.6a5 5 0 0 1-.28-1.65 3.37 3.37 0 0 1 .41-1.48c.28-.51.59-1.05.94-1.58s.71-1.05 1.05-1.56a7.15 7.15 0 0 0 .81-1.43c.84-1.94 1.64-3.9 2.43-5.85s1.61-3.9 2.45-5.85a4.28 4.28 0 0 1 .46-.74c.18-.23.36-.48.53-.71a3.33 3.33 0 0 0 .43-.74 1.77 1.77 0 0 0 .18-.82c0-.36-.12-.58-.33-.62a3 3 0 0 0-.64-.08 1.7 1.7 0 0 0-.38 0h-.25l-8.91 2.42a2.74 2.74 0 0 1-1.3.53l-1.76.39a6.71 6.71 0 0 0-1.56.58 1.11 1.11 0 0 0-.69 1.05 1.5 1.5 0 0 0 .26.89 2.69 2.69 0 0 0 .64.66l.82.54a2.92 2.92 0 0 1 .74.61l-.39.43c-.38-.26-.81-.54-1.27-.84a13.49 13.49 0 0 0-1.4-.82 8.92 8.92 0 0 0-1.5-.61 4.73 4.73 0 0 0-1.5-.23 14.49 14.49 0 0 0-3.76.51c-1.28.33-2.6.71-3.93 1.12s-2.68.81-4.06 1.13a17.07 17.07 0 0 1-4.17.51 21.34 21.34 0 0 1-3.43-.39c-1.48-.25-3.09-.62-4.85-1.1s-3.55-1.07-5.37-1.74a37.51 37.51 0 0 1-4.95-2.24A15.64 15.64 0 0 1 47 173a4.17 4.17 0 0 1-1.43-2.94 4.42 4.42 0 0 1 1.12-3.24 6.28 6.28 0 0 1 2.73-1.63 14 14 0 0 1 3.45-.15c1.22 0 2.33.33 3.32.33h3.94a2.56 2.56 0 0 1 1.27-.25c.69.08 1.46 0 2.32.15s1.71.18 2.53.31 1.5.18 2 .26a7.58 7.58 0 0 1 1.92.53c.59.28 1.18.55 1.77.84s1.18.52 1.81.75a6.08 6.08 0 0 0 2 .33 8.66 8.66 0 0 0 3.94-1.05 30.33 30.33 0 0 0 4.09-2.53c1.35-1 2.65-2 3.86-3.09s2.3-2 3.24-2.7a18 18 0 0 1 1.84-1.23c.62-.35 1.23-.71 1.84-1.08a15.65 15.65 0 0 0 1.71-1.25 7.87 7.87 0 0 0 1.48-1.69 37.29 37.29 0 0 0 2.6-4.44 31 31 0 0 1 2.68-4.42 6.94 6.94 0 0 1 1.3-1.3 15.09 15.09 0 0 1 1.53-1c.53-.3 1.07-.59 1.61-.87a15.51 15.51 0 0 0 1.61-.9c1.22-.81 2.42-1.68 3.57-2.61s2.3-1.91 3.42-2.89 2.24-2 3.34-3 2.24-1.94 3.42-2.84a21.26 21.26 0 0 1 3.75-2.19c1.31-.59 2.61-1.22 3.89-1.84.84-.38 1.66-.81 2.47-1.27s1.63-.89 2.45-1.3a25.07 25.07 0 0 1 2.55-1.13 12.42 12.42 0 0 1 2.65-.74l22.2-3.24a10.69 10.69 0 0 0 3.47-1.12 20 20 0 0 0 3.34-2.17 31.8 31.8 0 0 0 3.16-2.86c1-1.05 2-2.14 2.89-3.22s1.81-2.15 2.65-3.19 1.59-2 2.3-2.78l7.64-8.91a1.74 1.74 0 0 0 .33-.26c.18-.16.35-.35.53-.54s.36-.36.51-.53.25-.25.28-.26l2-3.24a2 2 0 0 1 .25-.16l.38-.23.38-.23a.86.86 0 0 0 .21-.2 2.61 2.61 0 0 0 .41-.39c.2-.21.31-.33.36-.39.38-.49.79-1.05 1.23-1.69s.92-1.28 1.36-2 .89-1.31 1.3-1.94a17.74 17.74 0 0 0 1-1.71 12.67 12.67 0 0 0 .85-2c.23-.69.46-1.4.69-2.1s.49-1.45.76-2.17 1-1.46 1-2.19v-6a5.14 5.14 0 0 0-1.08-3.06 11.53 11.53 0 0 0-2.61-2.6 13 13 0 0 0-3.33-1.79 9.19 9.19 0 0 0-3.18-.67 24.55 24.55 0 0 0-5.77.67 12.12 12.12 0 0 0-5.08 2.61 12.69 12.69 0 0 0-1.43 1.41L178 63.64l-1.74 2a21.21 21.21 0 0 1-1.82 1.82 11 11 0 0 1-1.81 1.3 3.47 3.47 0 0 1-1.76.51 1.69 1.69 0 0 1-1.66-1.59v-.43c0-.08.07-.25.12-.48s.11-.49.16-.76.11-.53.14-.77a2.63 2.63 0 0 0 .07-.46 5.12 5.12 0 0 0-.24-1.66 12.8 12.8 0 0 0-.59-1.35c-.23-.41-.41-.81-.59-1.18a3.06 3.06 0 0 1-.25-1.23 1.09 1.09 0 0 0 .84-.26 2.64 2.64 0 0 0 .44-.62c.13-.25.28-.49.43-.74a1.67 1.67 0 0 1 .79-.59h.54c.34 0 .53-.12.85-.12s.64-.1.9-.1h.51a1.08 1.08 0 0 0 .94-.36 3.44 3.44 0 0 1 .71-.66.53.53 0 0 1 .23 0h.15a.89.89 0 0 1 .25.37 1.75 1.75 0 0 0 .18.41.45.45 0 0 1 .39-.38l.62-.36 1.1-.64 1.35-.81 1.33-.79 1.08-.64a3.43 3.43 0 0 0 .56-.39 18.17 18.17 0 0 1 2.09-1.25 7.52 7.52 0 0 1 1.76-.62 9.8 9.8 0 0 1 1.91-.21h6.39a5.76 5.76 0 0 0 1.46.53c.51.13 1 .23 1.51.31l1.54.31a9.75 9.75 0 0 1 1.53.49 14.94 14.94 0 0 1 4.52 3 17 17 0 0 1 3.07 4.24 19.29 19.29 0 0 1 1.71 5 23.82 23.82 0 0 1 .48 5.41v1.51c0 .26-.02.52-.02.79z"/></svg>