<svg xmlns="http://www.w3.org/2000/svg"><symbol id="brachiosaurus" viewBox="0 0 256 256"><path d="M59.65 167.36a32.52 32.52 0 0 0-7.61.85.32.32 0 0 1 0 .12.46.46 0 0 0 0 .13c0 .28.26.59.77 1a13.46 13.46 0 0 0 2 1c.79.33 1.68.66 2.63 1s1.89.59 2.78.84 1.68.44 2.38.59a10.33 10.33 0 0 0 1.45.21c.59 0 1.31 0 2.14-.1a14.41 14.41 0 0 0 2.5-.41 12.1 12.1 0 0 0 2.31-.89 4.4 4.4 0 0 0 1.68-1.45 27.49 27.49 0 0 0-6.33-2.19 31.18 31.18 0 0 0-6.7-.7z"/><path d="M128 2.66a126 126 0 1 0 126 126 126 126 0 0 0-126-126zm82.17 69.52v.31a7 7 0 0 1-.1 1.38c-.13.66-.19 1.36-.32 2.09s-.22 1.41-.35 2.07-.18 1.08-.23 1.33a9.75 9.75 0 0 0-.9 1.81c-.23.64-.44 1.28-.64 2s-.38 1.31-.57 2a15.9 15.9 0 0 1-.72 1.92 30.44 30.44 0 0 1-1.66 3 21 21 0 0 0-1.58 3l-19.79 27.48a2.28 2.28 0 0 1-.23.54 1.43 1.43 0 0 1-.26.28c-.08.08-.2.16-.31.28a2.91 2.91 0 0 0-.41.49l-1.64 2.24c-.64.89-1.33 1.84-2 2.86s-1.45 2.1-2.17 3.2-1.38 2.19-2 3.24a24.16 24.16 0 0 0-1.38 2.94 6.82 6.82 0 0 0-.53 2.3c0 .3-.22.53-.21.72s.19.43.19.69c-.16 0-.26.14-.26.37s.1.38.26.4v10.08a2.68 2.68 0 0 1-.24 1c-.16.36-.2.74-.37 1.15s-.49.81-.6 1.2-.44.79-.44 1.12v1.64a.4.4 0 0 1 0 .43c-.15.23-.21.49-.39.77s-.55.56-.71.81-.51.38-.51.41v.39c0 .08.69.21.79.41s.85.33.85.41v2.81a23.07 23.07 0 0 1-.61 3.48c-.18 1.17-.55 2.32-.76 3.47s-.48 2.32-.66 3.48a22.51 22.51 0 0 0-.32 3.48 60.87 60.87 0 0 0 .29 6.25 41.49 41.49 0 0 0 1.07 6.1 31.66 31.66 0 0 0 2.11 5.7 23.19 23.19 0 0 0 3.38 5.18 5.68 5.68 0 0 1-1.25.82 10 10 0 0 1-1.66.67 13.93 13.93 0 0 1-1.71.46 4.93 4.93 0 0 1-1.43.08l-.46-.1-1-.25-1.18-.26-1-.21a7.34 7.34 0 0 1-.74-.15 4 4 0 0 1-.74-.28 2.89 2.89 0 0 1-.61-.48 1.35 1.35 0 0 1-.33-.71 29.58 29.58 0 0 0 .12-4c0-1.4-.15-2.81-.28-4.22s-.33-2.83-.51-4.24-.38-2.74-.53-4a3.11 3.11 0 0 1-.2-.62 1.47 1.47 0 0 0-.25-.59c.07-1.1.1-2.3.13-3.62s0-2.65-.13-4a25.93 25.93 0 0 0-.59-3.94 11.38 11.38 0 0 0-1.4-3.39 3.35 3.35 0 0 0-1.45 1.79 21.89 21.89 0 0 0-.77 2.7c-.21 1-.2 1.91-.43 2.86s-.92 1.73-.92 2.32V185c0 2.81-.21 5.56-.1 8.22s.2 5.37.56 8.14a1.88 1.88 0 0 0 .41.33c.26.18.51.38.81.59a6.4 6.4 0 0 1 .79.69.92.92 0 0 1 .34.62c0 .23-.27.49-.81.79a13.62 13.62 0 0 1-1.83.85 21.58 21.58 0 0 1-2 .82 12.27 12.27 0 0 1-1.27.41h-.18l-4.71-2.56a.46.46 0 0 1-.22-.48v-.59a22.15 22.15 0 0 1 0-3 21.51 21.51 0 0 0 .11-3 26 26 0 0 0-.31-3.76c-.16-1.23-.38-2.47-.58-3.68s-.41-2.47-.59-3.71a29.52 29.52 0 0 1-.25-3.86c0-1.22 0-2.32.11-3.29s.2-1.89.34-2.78.34-1.82.53-2.78.41-2 .66-3.17a1.37 1.37 0 0 0 0-.71 4.06 4.06 0 0 1-.12-.71 8 8 0 0 0-1.86.21c-.61.15-1.22.31-1.84.51l-1.91.61a16.09 16.09 0 0 1-1.89.51c-.51.07-1 .13-1.35.2l-1.07.13c-.35 0-.66-.12-1-.11s-.67-.17-1.05-.17h-1.81c-1.79 0-3.53.11-5.21 0s-3.4-.15-5.21-.15c-.77 0-1.58.06-2.42.1a4.06 4.06 0 0 0-2.33.85v5.16c0 1.7-.1 3.38-.16 5.05s-.2 3.37-.26 5.06-.15 3.41-.15 5.15v5.04c0 .54.66 1.1 1.12 1.66s.95 1.12 1.39 1.69a16.34 16.34 0 0 1 1.19 1.74 3.41 3.41 0 0 1 .52 1.78v.37a9.1 9.1 0 0 1-4 .39c.08.48 0 .72-.23.79a3.53 3.53 0 0 1-.71.07h-2a9.82 9.82 0 0 1-2.23-.23 4.26 4.26 0 0 1-1.81-.84 2.19 2.19 0 0 1-.76-1.84 6.93 6.93 0 0 1 .13-1.28c.1-.43.2-.85.31-1.28s.23-.85.31-1.3a6.35 6.35 0 0 0 .13-1.38 25.83 25.83 0 0 0-.26-3.8c-.18-1.22-.41-2.4-.67-3.57s-.53-2.62-.81-3.79a26.85 26.85 0 0 1-.71-3.94h-.43c-.21 0-.38.75-.51.91s-.26.48-.39.68-.23.41-.31.53c-.49.74-1 1.53-1.54 2.25s-1 1.5-1.45 2.25a16.53 16.53 0 0 0-1.07 2.41 8.4 8.4 0 0 0-.43 2.67 4.29 4.29 0 0 0 .33 1.61 14.11 14.11 0 0 0 .72 1.5c.26.44.51.84.72 1.15a1.65 1.65 0 0 1 .33.58.84.84 0 0 1-.41.72 3.15 3.15 0 0 1-1 .46 10.33 10.33 0 0 1-1.31.26c-.46 0-.9.1-1.33.1h-1.24a11.49 11.49 0 0 1-1.71-.13 2.06 2.06 0 0 1-1.76-1.25 9.35 9.35 0 0 1-.54-1.6c-.16-.54-.33-1.07-.51-1.6a5 5 0 0 1-.28-1.65 3.37 3.37 0 0 1 .41-1.48c.28-.51.59-1.05.94-1.58s.71-1.05 1.05-1.56a7.15 7.15 0 0 0 .81-1.43c.84-1.94 1.64-3.9 2.43-5.85s1.61-3.9 2.45-5.85a4.28 4.28 0 0 1 .46-.74c.18-.23.36-.48.53-.71a3.33 3.33 0 0 0 .43-.74 1.77 1.77 0 0 0 .18-.82c0-.36-.12-.58-.33-.62a3 3 0 0 0-.64-.08 1.7 1.7 0 0 0-.38 0h-.25l-8.91 2.42a2.74 2.74 0 0 1-1.3.53l-1.76.39a6.71 6.71 0 0 0-1.56.58 1.11 1.11 0 0 0-.69 1.05 1.5 1.5 0 0 0 .26.89 2.69 2.69 0 0 0 .64.66l.82.54a2.92 2.92 0 0 1 .74.61l-.39.43c-.38-.26-.81-.54-1.27-.84a13.49 13.49 0 0 0-1.4-.82 8.92 8.92 0 0 0-1.5-.61 4.73 4.73 0 0 0-1.5-.23 14.49 14.49 0 0 0-3.76.51c-1.28.33-2.6.71-3.93 1.12s-2.68.81-4.06 1.13a17.07 17.07 0 0 1-4.17.51 21.34 21.34 0 0 1-3.43-.39c-1.48-.25-3.09-.62-4.85-1.1s-3.55-1.07-5.37-1.74a37.51 37.51 0 0 1-4.95-2.24A15.64 15.64 0 0 1 47 173a4.17 4.17 0 0 1-1.43-2.94 4.42 4.42 0 0 1 1.12-3.24 6.28 6.28 0 0 1 2.73-1.63 14 14 0 0 1 3.45-.15c1.22 0 2.33.33 3.32.33h3.94a2.56 2.56 0 0 1 1.27-.25c.69.08 1.46 0 2.32.15s1.71.18 2.53.31 1.5.18 2 .26a7.58 7.58 0 0 1 1.92.53c.59.28 1.18.55 1.77.84s1.18.52 1.81.75a6.08 6.08 0 0 0 2 .33 8.66 8.66 0 0 0 3.94-1.05 30.33 30.33 0 0 0 4.09-2.53c1.35-1 2.65-2 3.86-3.09s2.3-2 3.24-2.7a18 18 0 0 1 1.84-1.23c.62-.35 1.23-.71 1.84-1.08a15.65 15.65 0 0 0 1.71-1.25 7.87 7.87 0 0 0 1.48-1.69 37.29 37.29 0 0 0 2.6-4.44 31 31 0 0 1 2.68-4.42 6.94 6.94 0 0 1 1.3-1.3 15.09 15.09 0 0 1 1.53-1c.53-.3 1.07-.59 1.61-.87a15.51 15.51 0 0 0 1.61-.9c1.22-.81 2.42-1.68 3.57-2.61s2.3-1.91 3.42-2.89 2.24-2 3.34-3 2.24-1.94 3.42-2.84a21.26 21.26 0 0 1 3.75-2.19c1.31-.59 2.61-1.22 3.89-1.84.84-.38 1.66-.81 2.47-1.27s1.63-.89 2.45-1.3a25.07 25.07 0 0 1 2.55-1.13 12.42 12.42 0 0 1 2.65-.74l22.2-3.24a10.69 10.69 0 0 0 3.47-1.12 20 20 0 0 0 3.34-2.17 31.8 31.8 0 0 0 3.16-2.86c1-1.05 2-2.14 2.89-3.22s1.81-2.15 2.65-3.19 1.59-2 2.3-2.78l7.64-8.91a1.74 1.74 0 0 0 .33-.26c.18-.16.35-.35.53-.54s.36-.36.51-.53.25-.25.28-.26l2-3.24a2 2 0 0 1 .25-.16l.38-.23.38-.23a.86.86 0 0 0 .21-.2 2.61 2.61 0 0 0 .41-.39c.2-.21.31-.33.36-.39.38-.49.79-1.05 1.23-1.69s.92-1.28 1.36-2 .89-1.31 1.3-1.94a17.74 17.74 0 0 0 1-1.71 12.67 12.67 0 0 0 .85-2c.23-.69.46-1.4.69-2.1s.49-1.45.76-2.17 1-1.46 1-2.19v-6a5.14 5.14 0 0 0-1.08-3.06 11.53 11.53 0 0 0-2.61-2.6 13 13 0 0 0-3.33-1.79 9.19 9.19 0 0 0-3.18-.67 24.55 24.55 0 0 0-5.77.67 12.12 12.12 0 0 0-5.08 2.61 12.69 12.69 0 0 0-1.43 1.41L178 63.64l-1.74 2a21.21 21.21 0 0 1-1.82 1.82 11 11 0 0 1-1.81 1.3 3.47 3.47 0 0 1-1.76.51 1.69 1.69 0 0 1-1.66-1.59v-.43c0-.08.07-.25.12-.48s.11-.49.16-.76.11-.53.14-.77a2.63 2.63 0 0 0 .07-.46 5.12 5.12 0 0 0-.24-1.66 12.8 12.8 0 0 0-.59-1.35c-.23-.41-.41-.81-.59-1.18a3.06 3.06 0 0 1-.25-1.23 1.09 1.09 0 0 0 .84-.26 2.64 2.64 0 0 0 .44-.62c.13-.25.28-.49.43-.74a1.67 1.67 0 0 1 .79-.59h.54c.34 0 .53-.12.85-.12s.64-.1.9-.1h.51a1.08 1.08 0 0 0 .94-.36 3.44 3.44 0 0 1 .71-.66.53.53 0 0 1 .23 0h.15a.89.89 0 0 1 .25.37 1.75 1.75 0 0 0 .18.41.45.45 0 0 1 .39-.38l.62-.36 1.1-.64 1.35-.81 1.33-.79 1.08-.64a3.43 3.43 0 0 0 .56-.39 18.17 18.17 0 0 1 2.09-1.25 7.52 7.52 0 0 1 1.76-.62 9.8 9.8 0 0 1 1.91-.21h6.39a5.76 5.76 0 0 0 1.46.53c.51.13 1 .23 1.51.31l1.54.31a9.75 9.75 0 0 1 1.53.49 14.94 14.94 0 0 1 4.52 3 17 17 0 0 1 3.07 4.24 19.29 19.29 0 0 1 1.71 5 23.82 23.82 0 0 1 .48 5.41v1.51c0 .26-.02.52-.02.79z"/></symbol><symbol id="micropachycephalosaurus" viewBox="0 0 256 256"><path d="M132.83 150.6c-.28 0-.41.2-.41.59a.12.12 0 0 0-.08 0 .43.43 0 0 0-.48.49c0 .39.16.59.48.59s.41-.2.41-.59a.12.12 0 0 0 .08 0c.35 0 .51-.16.51-.49s-.16-.59-.51-.59zm1.45-.79a2.34 2.34 0 0 0-.85.79h.3a2.19 2.19 0 0 0 1.1-.33 2.24 2.24 0 0 0 .84-.77h-.3a2.1 2.1 0 0 0-1.09.31zm3.02-2.55c-.28 0-.41.18-.41.54a.32.32 0 0 0-.13 0c-.28 0-.43.18-.43.56a.25.25 0 0 0-.12 0c-.31 0-.48.2-.48.59s.16.54.48.54.46-.18.46-.54a.12.12 0 0 0 .08 0c.31 0 .46-.2.46-.59a.12.12 0 0 0 .08 0c.35 0 .51-.18.51-.56s-.15-.54-.5-.54zm23.03-5.86a14 14 0 0 1-1.27 1.4 1.78 1.78 0 0 0 .81 1 2.93 2.93 0 0 0 1.13.2 2.14 2.14 0 0 0 1.38-.47 4.7 4.7 0 0 0 1.05-1.21 10.19 10.19 0 0 0 .76-1.45c.21-.51.38-1.17.49-1.17h-3.38c-.2.02-.51 1.09-.97 1.7z"/><path d="M128.33 1.66a126 126 0 1 0 126 126 126 126 0 0 0-126-126zm94.49 74.75a5 5 0 0 1-1.54.38 13.92 13.92 0 0 1-1.64.08h-1.08l-.94.07a42.17 42.17 0 0 0-5.16 1.23 15.8 15.8 0 0 0-3.62 1.58 9.24 9.24 0 0 0-2.47 2.15 13.77 13.77 0 0 0-1.74 2.91 35.55 35.55 0 0 0-1.48 3.86c-.48 1.46-1 3.12-1.64 5q-.59 1.77-1.18 3.4c-.39 1.07-.81 2.14-1.25 3.16s-.9 2.05-1.43 3.11-1.1 2.1-1.74 3.2a33 33 0 0 1-2.65 4c-.94 1.23-1.91 2.45-2.93 3.63s-2 2.35-3.07 3.53-2.07 2.45-3.09 3.8a10.41 10.41 0 0 0-1.36 2.65c-.3.87-.61 1.73-1 2.53a8.3 8.3 0 0 1-1.33 2.19 5.52 5.52 0 0 1-2.47 1.58 8.67 8.67 0 0 1-1.33.56l-2 .67-2 .62c-.64.2-1.08.33-1.35.38a2.87 2.87 0 0 1 .16 2 1.94 1.94 0 0 1-.85.92c-.38.21-.79.41-1.2.59a1.64 1.64 0 0 0-.89 1l-2.24 6.67a2.66 2.66 0 0 1-1 1.5 5.83 5.83 0 0 1-1.76.85 11.18 11.18 0 0 1-2 .18 14.63 14.63 0 0 1-1.84-.13h-.84c-.48 0-.85.16-1.12 0s-.41-.33-.41-.84a.55.55 0 0 1 .12-.37 1.94 1.94 0 0 1 .23-.28 3.5 3.5 0 0 0 .23-.28.68.68 0 0 0 .1-.39.3.3 0 0 0 0-.11.5.5 0 0 1 0-.18 23.07 23.07 0 0 0-3.4 1.64c-1.1.64-2.22 1.33-3.34 2l-3.3 2.15a38.35 38.35 0 0 1-3.34 2 3.67 3.67 0 0 1-.85.44 10.72 10.72 0 0 0-1.15.58 4.67 4.67 0 0 0-1 .77 1.47 1.47 0 0 0-.43 1 3.13 3.13 0 0 0 0 .33 1.56 1.56 0 0 1 0 .23c.56.49 1.15 1 1.78 1.61s1.25 1.15 1.92 1.71 1.33 1.1 2 1.59a14.44 14.44 0 0 0 2.09 1.23 9 9 0 0 0 1.79.67l1.92.53c.64.2 1.27.39 1.87.64a7.35 7.35 0 0 1 1.66.9 8.2 8.2 0 0 1 1.33 1.4l1.1 1.5c.35.49.72 1 1.12 1.45a5 5 0 0 0 3.12 1.86 15.63 15.63 0 0 1 2.05.64 6.23 6.23 0 0 1 1.77 1 2.09 2.09 0 0 1 .76 1.69.89.89 0 0 1-.07.28 1.14 1.14 0 0 0 0 .23l-5.57 1.13a3.65 3.65 0 0 0-1.08.38 2.33 2.33 0 0 1-1.15.26h-.56c-.18-.12-.56-.33-1.12-.62l-1.73-1c-.61-.35-1.17-.69-1.68-1a6.71 6.71 0 0 1-1-.74s-.1-.08-.2-.21l-.31-.49-.35-.54c-.1-.18-.2-.33-.25-.44l-2.24-4.47-1.13-.44c-.54-.21-1.13-.46-1.79-.74s-1.36-.59-2.12-.92-1.45-.66-2.12-1-1.27-.58-1.78-.82a11.16 11.16 0 0 1-1.1-.59 24.06 24.06 0 0 1-2.76-1.56 16.08 16.08 0 0 1-2.6-2.12 13.08 13.08 0 0 1-2-2.66 8.08 8.08 0 0 1-1-3.11l-.56.23a2.91 2.91 0 0 0-.59.33 7.57 7.57 0 0 1-.85.64c-.46.33-1 .72-1.69 1.17s-1.36.92-2.1 1.4l-2.1 1.35-1.74 1.07a9.19 9.19 0 0 1-.94.53c-2.24 1.33-4.21 2.5-5.93 3.5a23 23 0 0 0-4.5 3.39 17.14 17.14 0 0 0-3.59 4.4c-.87 1.69-.71 3.88-2.36 6.56v.25a3.39 3.39 0 0 1 0 .41v.94a9.85 9.85 0 0 0 1.14 4.4 7.81 7.81 0 0 0 2.11 2.55 8.33 8.33 0 0 0 2.61 1.4c.9.31 1.79.62 2.54 1a5.67 5.67 0 0 1 1.95 1 5 5 0 0 1 .8 2h-13.2s-.08-.25-.18-.39-.23-.11-.36-.2a3.52 3.52 0 0 0-.49-.15 3.16 3.16 0 0 1-.61-.32 2.93 2.93 0 0 1-1.25-1.52 8.69 8.69 0 0 1-.46-2.14 15.67 15.67 0 0 1 .2-2.31c0-.77.28-1.44.28-2v-1.45a6.88 6.88 0 0 1 .26-1.74c.21-.81.33-1.69.58-2.68s.47-2 .76-3.12.55-2.14.79-3.12.48-1.87.66-2.65.34-1.36.42-1.74a15.13 15.13 0 0 1 .65-2 13.06 13.06 0 0 1 1-1.87 14.23 14.23 0 0 0 4.47-2.55 27.33 27.33 0 0 0 3.22-3.25c1-1.13 1.94-2.27 2.88-3.4a15.26 15.26 0 0 1 3.4-3.06 7.19 7.19 0 0 1 1.43-.71l2-.79c.76-.3 1.51-.62 2.3-1a15.29 15.29 0 0 0 2.14-1.12 7.93 7.93 0 0 0 1.56-1.31 2.32 2.32 0 0 0 .61-1.54v-1.31a1.83 1.83 0 0 0-.62-1.2 7.28 7.28 0 0 1-.76-.28c-.36-.15-.76-.33-1.18-.53l-1.17-.56c-.38-.16-.62-.28-.77-.33a10.16 10.16 0 0 1-2-1.2l-2.61-1.87c-.9-.66-1.74-1-2.53-1.54a3.15 3.15 0 0 0-1.73-.56h-7.81c-5.93 0-11.77-.1-17.52.1s-11.59.2-17.52.2c-4.36 0-8.61-.15-12.75-.36a107.87 107.87 0 0 1-12.28-1.36 85.09 85.09 0 0 1-11.92-2.9 68.88 68.88 0 0 1-11.69-5l-1.41-.71a13.42 13.42 0 0 1-1.58-1 5.93 5.93 0 0 1-1.28-1.28 2.52 2.52 0 0 1-.53-1.56 6.86 6.86 0 0 1 2.09.39c.79.28 1.59.58 2.38.92s1.51.66 2.17 1 1.15.51 1.5.62c1.43.56 3 1.12 4.62 1.64s3.32 1 5 1.43 3.4.74 5.08 1a33.37 33.37 0 0 0 4.82.35h25.1a9.38 9.38 0 0 0 1.22-.12l2.53-.35c1-.13 2.12-.3 3.34-.52s2.42-.41 3.6-.6 2.33-.39 3.4-.61 2-.41 2.65-.57l6.84-1.33c2.42-.46 4.85-1 7.3-1.59s4.85-1.3 7.2-2.09a47.33 47.33 0 0 0 6.56-2.78l3.8-1.76c1.23-.58 2.48-1.12 3.76-1.59s2.58-.94 3.91-1.31a31.72 31.72 0 0 1 4.17-.9 8.3 8.3 0 0 1 1-.12l1.78-.12 1.76-.15a4.57 4.57 0 0 0 1-.18 16.1 16.1 0 0 0 1.87-.33c1-.2 2.05-.44 3.32-.72s2.61-.58 4-.9 2.76-.62 4-.9 2.35-.91 3.29-1.11 1.56-.71 1.87-.71h6.46c2.7 0 5.33.48 7.87.71s5.13.51 7.77.51a10 10 0 0 0 5-1.24 18.34 18.34 0 0 0 4.47-3.47 32.58 32.58 0 0 0 3.86-4.92 64 64 0 0 0 3.26-5.72c1-1.89 1.82-3.74 2.53-5.53s1.3-3.38 1.76-4.76c.43-1.18.79-2.33 1.12-3.43s.66-2.15 1-3.11a15.74 15.74 0 0 1 1.2-2.6 7.22 7.22 0 0 1 1.76-2 7.86 7.86 0 0 1 2.6-1.59 12.34 12.34 0 0 1 3.76-.78h3.04c.76 1.64 1.74.9 3 1.3a37.13 37.13 0 0 1 3.52 1.51 15.06 15.06 0 0 1 3 1.81 2.8 2.8 0 0 1 1.23 2.16 2.08 2.08 0 0 1-.44 1.4 3.07 3.07 0 0 1-1.27.85z"/></symbol><symbol id="velociraptor" viewBox="0 0 256 256"><path d="M127.67 1.66a126 126 0 1 0 126 126 126 126 0 0 0-126-126zm108.95 115c-1.4.08-2.76.08-4.08 0s-2.4-.08-3.22-.08c-3 0-6-.15-9.06-.44s-6-.62-9-1-6-.66-9-1-6-.44-9.11-.44a133.9 133.9 0 0 0-16.14 1 73 73 0 0 0-15.68 3.67l-30.26 10.93a2.44 2.44 0 0 0-1.2 1.54 20.22 20.22 0 0 0-.81 2.71c-.23 1-.43 1.92-.62 2.83a6.9 6.9 0 0 1-.61 1.94 3.1 3.1 0 0 0 1.36 1.31 21 21 0 0 0 2.42 1.15l2.86 1.17a18 18 0 0 1 2.74 1.43 8.43 8.43 0 0 1 2.07 1.86 3.8 3.8 0 0 1 .81 2.43 1.62 1.62 0 0 1-.48 1.2 4.91 4.91 0 0 1-1.2.87 13 13 0 0 1-1.59.72 9.61 9.61 0 0 0-1.59.79 4.71 4.71 0 0 0-1.22 1 2.33 2.33 0 0 0-.48 1.5 3.69 3.69 0 0 0 .79 2.51 7.82 7.82 0 0 0 1.91 1.56c.74.46 1.53.89 2.35 1.31a7.43 7.43 0 0 1 2.14 1.71 17.21 17.21 0 0 1 2 3.42A23.42 23.42 0 0 1 144 168a34.77 34.77 0 0 1 .76 3.81c.18 1.3.11 2.61.25 3.91l1.31 1.3v7.1a3.43 3.43 0 0 1 .85 0c.28 0 .7.1 1 .18l1 .21a1.42 1.42 0 0 1 .56.23c0 .44.08.72.08.84a6.65 6.65 0 0 1-.11 1 7 7 0 0 1-.36 1.23 3.17 3.17 0 0 1-.62.93 1 1 0 0 1-.87.3h-5.14c-.2 0-.51-.52-1-.81s-1-.54-1.48-.85-1-.46-1.54-.77-.89-.85-1.15-.85h-6.1a4.66 4.66 0 0 1 .64-2.93 4.28 4.28 0 0 1 1.63-1.54 7 7 0 0 1 2.1-.65c.74-.1 1.45-.22 2.1-.35a5 5 0 0 0 1.61-.6 1.46 1.46 0 0 0 .64-1.35 2.72 2.72 0 0 0 0-.33v-.3c-.18-.41-.46-1-.84-1.76s-.79-1.56-1.27-2.4a26.5 26.5 0 0 0-1.51-2.45 9.34 9.34 0 0 0-1.54-1.79 7.58 7.58 0 0 0-1.28-.79c-.59-.3-1.22-.61-1.84-.94a18.78 18.78 0 0 1-1.74-1.05 2.13 2.13 0 0 1-1-1.08 22.73 22.73 0 0 1-.92-2.91 21.34 21.34 0 0 0-1.07-3.19 7.87 7.87 0 0 0-1.71-2.56 3.92 3.92 0 0 0-2.86-1 23.19 23.19 0 0 0-6 .79 26.4 26.4 0 0 0-5.67 2.22 25.82 25.82 0 0 0-4.95 3.43 22.23 22.23 0 0 0-3.9 4.54.41.41 0 0 1-.35.18h-.16a.14.14 0 0 1-.12-.15.62.62 0 0 1-.2-.33c0-.18-.1-.39-.16-.62s-.12-.43-.16-.61a.67.67 0 0 0-.15-.33.63.63 0 0 0-.28-.07 1.4 1.4 0 0 0-1.05.48 6.58 6.58 0 0 0-.87 1.15l-.82 1.31a3.66 3.66 0 0 1-.84 1 4.34 4.34 0 0 1-.64-1.63 14.85 14.85 0 0 1-.08-1.63 10.31 10.31 0 0 1 .39-2.88c.26-.92.56-1.84.89-2.78s.64-1.56.9-2.53a19.45 19.45 0 0 0 .39-2.74h-4.82c0-1.64.21-1.79.64-2.35a5.77 5.77 0 0 1 1.59-1.56 7.09 7.09 0 0 1 2.1-.9 10.21 10.21 0 0 1 2.1-.29 20.17 20.17 0 0 1 3 .19c1 .16 2 .3 2.91.47s1.91.32 2.86.46a21 21 0 0 0 2.89.19h2.28a2.55 2.55 0 0 0-1.68-1.35 14.85 14.85 0 0 0-2.51-.44l-2.66-.2c-.89 0-1.59.15-2.17-.2l-3.86-2.17h-.28a13.4 13.4 0 0 0-3.14 0 13.1 13.1 0 0 1-3.12.16 7.33 7.33 0 0 1-3-.69 26.3 26.3 0 0 1-2.61-1.36c-.84-.48-1.76-.94-2.6-1.34a5.08 5.08 0 0 0-2.86-.62v6a12.61 12.61 0 0 0 1.58-.15 5 5 0 0 0 1.87-.84c.31-.2.37-.41.88-.64.12-.07.6-.13.6-.16v2.74l2-.67c0 .12.2.28.21.51s.12.38.12.49a5.51 5.51 0 0 1-1.3 3.85 21.57 21.57 0 0 1-3.23 2.88 22.52 22.52 0 0 0-4.54-1.43c-1.5-.25-3.09-.46-4.74-.66v-7.72c0 .08-1 .25-1.73.53a16.49 16.49 0 0 0-2 1 12.56 12.56 0 0 0-1.89 1.18c-.46.41-.92.81-.92 1.17v6.84a10.23 10.23 0 0 0 2.94-.28 11.81 11.81 0 0 0 1.82-.59 12.2 12.2 0 0 0 1.22-.59 2.63 2.63 0 0 1 1.21-.28h.14a.88.88 0 0 0 .2 0c0 .12.13.35.28.72s.3.79.46 1.23.28.89.38 1.28a4.17 4.17 0 0 1 .18 1 5.06 5.06 0 0 1-.39 1.89 7.08 7.08 0 0 1-1.07 1.79 5.68 5.68 0 0 1-1.56 1.32 3.08 3.08 0 0 1-2.38.48h-.44c-.74-.15-1.73-.31-3-.48a28.69 28.69 0 0 1-3.62-.71 11.9 11.9 0 0 1-3.18-1.29 2.5 2.5 0 0 1-1.43-2v-11.63c0-.12.39-.38.88-.82s1.16-1 1.87-1.59 1.52-1.35 2.36-2.15a25.88 25.88 0 0 0 2.35-2.51 20.29 20.29 0 0 0 1.8-2.63 5.44 5.44 0 0 0 .73-2.56 3.82 3.82 0 0 0-1.16-2.74 11.66 11.66 0 0 0-2.78-2 24 24 0 0 0-3.22-1.41q-1.63-.54-2.51-.89l-1.3-9c-.15-.82-.35-1.71-.61-2.68a11.71 11.71 0 0 0-1.1-2.73 7.14 7.14 0 0 0-1.79-2.17 4.06 4.06 0 0 0-2.63-.87 12.32 12.32 0 0 0-3.6.48 14.74 14.74 0 0 0-3.19 1.48c-.33.23-.87.56-1.63 1l-2.51 1.48c-.94.54-1.91 1.12-2.94 1.74s-2 1.18-2.94 1.73-1.78 1.22-2.51 1.64-1.3 1.1-1.63 1.1h-1c-.46 0-1-.2-1.71-.23a14.55 14.55 0 0 1-2.05-.37 3.42 3.42 0 0 1-1.36-.75c-.46-.31-.35-.8-.35-1.36v-1.86c0-.59-.21-.9 0-.92s.67 0 1.55 0a1.06 1.06 0 0 1 0-.43c.07-.25.09-.51.15-.81s.13-.59.18-.85a.85.85 0 0 0 0-.49 2.39 2.39 0 0 0-.79-.82l-.87-.49a2.4 2.4 0 0 1-.69-.66 2 2 0 0 1-.28-1.23 3.17 3.17 0 0 1 .25-1.17 4.79 4.79 0 0 1 .67-1.15c.28-.36.25-.64.61-.87a3.31 3.31 0 0 1 .81-.33v.77c0 .49.41 1 .56 1.46a1.16 1.16 0 0 0 1.19.72 1.61 1.61 0 0 0 1.09-.48 5.25 5.25 0 0 0 .95-1.12 10.31 10.31 0 0 0 .63-1.62c.15-.44.25.27.25-1.37H22.16a1.86 1.86 0 0 1-.85-.47c-.36-.26-.71-.39-1-.67a6.12 6.12 0 0 1-.9-.79 1.43 1.43 0 0 1-.39-1 4.47 4.47 0 0 1 .98-3.16A7.4 7.4 0 0 1 22.62 99a16.81 16.81 0 0 1 3.16-1 20.69 20.69 0 0 0 2.83-.82c.41-.15 1.15-.46 2.19-.92s2.17-1 3.34-1.54 2.28-1.06 3.3-1.57a10 10 0 0 1 2.17-1.06h13.48a7.34 7.34 0 0 1 3.83 1A13.24 13.24 0 0 1 60 95.54a26.25 26.25 0 0 1 2.51 3.28c.77 1.17 1.53 2.27 2.27 3.27a16.65 16.65 0 0 0 2.22 2.53 3.64 3.64 0 0 0 2.47 1 .82.82 0 0 0 .77-.39.88.88 0 0 1 .84-.39 3.82 3.82 0 0 1 1.5.31c.49.2 1 .44 1.51.71s1 .49 1.51.69a3.88 3.88 0 0 0 1.54.31c1.38 0 2.74-.07 4.08-.2s2.7-.28 4.06-.44 2.73-.33 4.08-.48a36.94 36.94 0 0 1 4.08-.23 64 64 0 0 1 7.23.39 38.5 38.5 0 0 1 7.17 1.56c1.64.56 3.3 1.22 5 2s3.37 1.46 5.06 2.15a45.64 45.64 0 0 0 5.18 1.74 21.18 21.18 0 0 0 5.39.69h1.25c.62 0 1.05-.07 1.31-.07 4.26-.92 8.51-1.82 12.75-2.68s8.48-1.63 12.7-2.27 8.51-1.15 12.8-1.54 8.63-.56 13-.56h3.3c1.79 0 3.62 0 5.46.12a40.43 40.43 0 0 1 5 .92l36.08 7.18h11.6c-.79 0-1.82 1-3.11 1.35a18.16 18.16 0 0 1-3.99.16z"/></symbol></svg>