<svg xmlns="http://www.w3.org/2000/svg" viewBox="0 0 256 256" width="256" height="256"><path d="M132.83 150.6c-.28 0-.41.2-.41.59a.12.12 0 0 0-.08 0 .43.43 0 0 0-.48.49c0 .39.16.59.48.59s.41-.2.41-.59a.12.12 0 0 0 .08 0c.35 0 .51-.16.51-.49s-.16-.59-.51-.59zm1.45-.79a2.34 2.34 0 0 0-.85.79h.3a2.19 2.19 0 0 0 1.1-.33 2.24 2.24 0 0 0 .84-.77h-.3a2.1 2.1 0 0 0-1.09.31zm3.02-2.55c-.28 0-.41.18-.41.54a.32.32 0 0 0-.13 0c-.28 0-.43.18-.43.56a.25.25 0 0 0-.12 0c-.31 0-.48.2-.48.59s.16.54.48.54.46-.18.46-.54a.12.12 0 0 0 .08 0c.31 0 .46-.2.46-.59a.12.12 0 0 0 .08 0c.35 0 .51-.18.51-.56s-.15-.54-.5-.54zm23.03-5.86a14 14 0 0 1-1.27 1.4 1.78 1.78 0 0 0 .81 1 2.93 2.93 0 0 0 1.13.2 2.14 2.14 0 0 0 1.38-.47 4.7 4.7 0 0 0 1.05-1.21 10.19 10.19 0 0 0 .76-1.45c.21-.51.38-1.17.49-1.17h-3.38c-.2.02-.51 1.09-.97 1.7z"/><path d="M128.33 1.66a126 126 0 1 0 126 126 126 126 0 0 0-126-126zm94.49 74.75a5 5 0 0 1-1.54.38 13.92 13.92 0 0 1-1.64.08h-1.08l-.94.07a42.17 42.17 0 0 0-5.16 1.23 15.8 15.8 0 0 0-3.62 1.58 9.24 9.24 0 0 0-2.47 2.15 13.77 13.77 0 0 0-1.74 2.91 35.55 35.55 0 0 0-1.48 3.86c-.48 1.46-1 3.12-1.64 5q-.59 1.77-1.18 3.4c-.39 1.07-.81 2.14-1.25 3.16s-.9 2.05-1.43 3.11-1.1 2.1-1.74 3.2a33 33 0 0 1-2.65 4c-.94 1.23-1.91 2.45-2.93 3.63s-2 2.35-3.07 3.53-2.07 2.45-3.09 3.8a10.41 10.41 0 0 0-1.36 2.65c-.3.87-.61 1.73-1 2.53a8.3 8.3 0 0 1-1.33 2.19 5.52 5.52 0 0 1-2.47 1.58 8.67 8.67 0 0 1-1.33.56l-2 .67-2 .62c-.64.2-1.08.33-1.35.38a2.87 2.87 0 0 1 .16 2 1.94 1.94 0 0 1-.85.92c-.38.21-.79.41-1.2.59a1.64 1.64 0 0 0-.89 1l-2.24 6.67a2.66 2.66 0 0 1-1 1.5 5.83 5.83 0 0 1-1.76.85 11.18 11.18 0 0 1-2 .18 14.63 14.63 0 0 1-1.84-.13h-.84c-.48 0-.85.16-1.12 0s-.41-.33-.41-.84a.55.55 0 0 1 .12-.37 1.94 1.94 0 0 1 .23-.28 3.5 3.5 0 0 0 .23-.28.68.68 0 0 0 .1-.39.3.3 0 0 0 0-.11.5.5 0 0 1 0-.18 23.07 23.07 0 0 0-3.4 1.64c-1.1.64-2.22 1.33-3.34 2l-3.3 2.15a38.35 38.35 0 0 1-3.34 2 3.67 3.67 0 0 1-.85.44 10.72 10.72 0 0 0-1.15.58 4.67 4.67 0 0 0-1 .77 1.47 1.47 0 0 0-.43 1 3.13 3.13 0 0 0 0 .33 1.56 1.56 0 0 1 0 .23c.56.49 1.15 1 1.78 1.61s1.25 1.15 1.92 1.71 1.33 1.1 2 1.59a14.44 14.44 0 0 0 2.09 1.23 9 9 0 0 0 1.79.67l1.92.53c.64.2 1.27.39 1.87.64a7.35 7.35 0 0 1 1.66.9 8.2 8.2 0 0 1 1.33 1.4l1.1 1.5c.35.49.72 1 1.12 1.45a5 5 0 0 0 3.12 1.86 15.63 15.63 0 0 1 2.05.64 6.23 6.23 0 0 1 1.77 1 2.09 2.09 0 0 1 .76 1.69.89.89 0 0 1-.07.28 1.14 1.14 0 0 0 0 .23l-5.57 1.13a3.65 3.65 0 0 0-1.08.38 2.33 2.33 0 0 1-1.15.26h-.56c-.18-.12-.56-.33-1.12-.62l-1.73-1c-.61-.35-1.17-.69-1.68-1a6.71 6.71 0 0 1-1-.74s-.1-.08-.2-.21l-.31-.49-.35-.54c-.1-.18-.2-.33-.25-.44l-2.24-4.47-1.13-.44c-.54-.21-1.13-.46-1.79-.74s-1.36-.59-2.12-.92-1.45-.66-2.12-1-1.27-.58-1.78-.82a11.16 11.16 0 0 1-1.1-.59 24.06 24.06 0 0 1-2.76-1.56 16.08 16.08 0 0 1-2.6-2.12 13.08 13.08 0 0 1-2-2.66 8.08 8.08 0 0 1-1-3.11l-.56.23a2.91 2.91 0 0 0-.59.33 7.57 7.57 0 0 1-.85.64c-.46.33-1 .72-1.69 1.17s-1.36.92-2.1 1.4l-2.1 1.35-1.74 1.07a9.19 9.19 0 0 1-.94.53c-2.24 1.33-4.21 2.5-5.93 3.5a23 23 0 0 0-4.5 3.39 17.14 17.14 0 0 0-3.59 4.4c-.87 1.69-.71 3.88-2.36 6.56v.25a3.39 3.39 0 0 1 0 .41v.94a9.85 9.85 0 0 0 1.14 4.4 7.81 7.81 0 0 0 2.11 2.55 8.33 8.33 0 0 0 2.61 1.4c.9.31 1.79.62 2.54 1a5.67 5.67 0 0 1 1.95 1 5 5 0 0 1 .8 2h-13.2s-.08-.25-.18-.39-.23-.11-.36-.2a3.52 3.52 0 0 0-.49-.15 3.16 3.16 0 0 1-.61-.32 2.93 2.93 0 0 1-1.25-1.52 8.69 8.69 0 0 1-.46-2.14 15.67 15.67 0 0 1 .2-2.31c0-.77.28-1.44.28-2v-1.45a6.88 6.88 0 0 1 .26-1.74c.21-.81.33-1.69.58-2.68s.47-2 .76-3.12.55-2.14.79-3.12.48-1.87.66-2.65.34-1.36.42-1.74a15.13 15.13 0 0 1 .65-2 13.06 13.06 0 0 1 1-1.87 14.23 14.23 0 0 0 4.47-2.55 27.33 27.33 0 0 0 3.22-3.25c1-1.13 1.94-2.27 2.88-3.4a15.26 15.26 0 0 1 3.4-3.06 7.19 7.19 0 0 1 1.43-.71l2-.79c.76-.3 1.51-.62 2.3-1a15.29 15.29 0 0 0 2.14-1.12 7.93 7.93 0 0 0 1.56-1.31 2.32 2.32 0 0 0 .61-1.54v-1.31a1.83 1.83 0 0 0-.62-1.2 7.28 7.28 0 0 1-.76-.28c-.36-.15-.76-.33-1.18-.53l-1.17-.56c-.38-.16-.62-.28-.77-.33a10.16 10.16 0 0 1-2-1.2l-2.61-1.87c-.9-.66-1.74-1-2.53-1.54a3.15 3.15 0 0 0-1.73-.56h-7.81c-5.93 0-11.77-.1-17.52.1s-11.59.2-17.52.2c-4.36 0-8.61-.15-12.75-.36a107.87 107.87 0 0 1-12.28-1.36 85.09 85.09 0 0 1-11.92-2.9 68.88 68.88 0 0 1-11.69-5l-1.41-.71a13.42 13.42 0 0 1-1.58-1 5.93 5.93 0 0 1-1.28-1.28 2.52 2.52 0 0 1-.53-1.56 6.86 6.86 0 0 1 2.09.39c.79.28 1.59.58 2.38.92s1.51.66 2.17 1 1.15.51 1.5.62c1.43.56 3 1.12 4.62 1.64s3.32 1 5 1.43 3.4.74 5.08 1a33.37 33.37 0 0 0 4.82.35h25.1a9.38 9.38 0 0 0 1.22-.12l2.53-.35c1-.13 2.12-.3 3.34-.52s2.42-.41 3.6-.6 2.33-.39 3.4-.61 2-.41 2.65-.57l6.84-1.33c2.42-.46 4.85-1 7.3-1.59s4.85-1.3 7.2-2.09a47.33 47.33 0 0 0 6.56-2.78l3.8-1.76c1.23-.58 2.48-1.12 3.76-1.59s2.58-.94 3.91-1.31a31.72 31.72 0 0 1 4.17-.9 8.3 8.3 0 0 1 1-.12l1.78-.12 1.76-.15a4.57 4.57 0 0 0 1-.18 16.1 16.1 0 0 0 1.87-.33c1-.2 2.05-.44 3.32-.72s2.61-.58 4-.9 2.76-.62 4-.9 2.35-.91 3.29-1.11 1.56-.71 1.87-.71h6.46c2.7 0 5.33.48 7.87.71s5.13.51 7.77.51a10 10 0 0 0 5-1.24 18.34 18.34 0 0 0 4.47-3.47 32.58 32.58 0 0 0 3.86-4.92 64 64 0 0 0 3.26-5.72c1-1.89 1.82-3.74 2.53-5.53s1.3-3.38 1.76-4.76c.43-1.18.79-2.33 1.12-3.43s.66-2.15 1-3.11a15.74 15.74 0 0 1 1.2-2.6 7.22 7.22 0 0 1 1.76-2 7.86 7.86 0 0 1 2.6-1.59 12.34 12.34 0 0 1 3.76-.78h3.04c.76 1.64 1.74.9 3 1.3a37.13 37.13 0 0 1 3.52 1.51 15.06 15.06 0 0 1 3 1.81 2.8 2.8 0 0 1 1.23 2.16 2.08 2.08 0 0 1-.44 1.4 3.07 3.07 0 0 1-1.27.85z"/></svg>