<svg xmlns="http://www.w3.org/2000/svg" viewBox="0 0 256 256" width="256" height="256"><path d="M127.67 1.66a126 126 0 1 0 126 126 126 126 0 0 0-126-126zm108.95 115c-1.4.08-2.76.08-4.08 0s-2.4-.08-3.22-.08c-3 0-6-.15-9.06-.44s-6-.62-9-1-6-.66-9-1-6-.44-9.11-.44a133.9 133.9 0 0 0-16.14 1 73 73 0 0 0-15.68 3.67l-30.26 10.93a2.44 2.44 0 0 0-1.2 1.54 20.22 20.22 0 0 0-.81 2.71c-.23 1-.43 1.92-.62 2.83a6.9 6.9 0 0 1-.61 1.94 3.1 3.1 0 0 0 1.36 1.31 21 21 0 0 0 2.42 1.15l2.86 1.17a18 18 0 0 1 2.74 1.43 8.43 8.43 0 0 1 2.07 1.86 3.8 3.8 0 0 1 .81 2.43 1.62 1.62 0 0 1-.48 1.2 4.91 4.91 0 0 1-1.2.87 13 13 0 0 1-1.59.72 9.61 9.61 0 0 0-1.59.79 4.71 4.71 0 0 0-1.22 1 2.33 2.33 0 0 0-.48 1.5 3.69 3.69 0 0 0 .79 2.51 7.82 7.82 0 0 0 1.91 1.56c.74.46 1.53.89 2.35 1.31a7.43 7.43 0 0 1 2.14 1.71 17.21 17.21 0 0 1 2 3.42A23.42 23.42 0 0 1 144 168a34.77 34.77 0 0 1 .76 3.81c.18 1.3.11 2.61.25 3.91l1.31 1.3v7.1a3.43 3.43 0 0 1 .85 0c.28 0 .7.1 1 .18l1 .21a1.42 1.42 0 0 1 .56.23c0 .44.08.72.08.84a6.65 6.65 0 0 1-.11 1 7 7 0 0 1-.36 1.23 3.17 3.17 0 0 1-.62.93 1 1 0 0 1-.87.3h-5.14c-.2 0-.51-.52-1-.81s-1-.54-1.48-.85-1-.46-1.54-.77-.89-.85-1.15-.85h-6.1a4.66 4.66 0 0 1 .64-2.93 4.28 4.28 0 0 1 1.63-1.54 7 7 0 0 1 2.1-.65c.74-.1 1.45-.22 2.1-.35a5 5 0 0 0 1.61-.6 1.46 1.46 0 0 0 .64-1.35 2.72 2.72 0 0 0 0-.33v-.3c-.18-.41-.46-1-.84-1.76s-.79-1.56-1.27-2.4a26.5 26.5 0 0 0-1.51-2.45 9.34 9.34 0 0 0-1.54-1.79 7.58 7.58 0 0 0-1.28-.79c-.59-.3-1.22-.61-1.84-.94a18.78 18.78 0 0 1-1.74-1.05 2.13 2.13 0 0 1-1-1.08 22.73 22.73 0 0 1-.92-2.91 21.34 21.34 0 0 0-1.07-3.19 7.87 7.87 0 0 0-1.71-2.56 3.92 3.92 0 0 0-2.86-1 23.19 23.19 0 0 0-6 .79 26.4 26.4 0 0 0-5.67 2.22 25.82 25.82 0 0 0-4.95 3.43 22.23 22.23 0 0 0-3.9 4.54.41.41 0 0 1-.35.18h-.16a.14.14 0 0 1-.12-.15.62.62 0 0 1-.2-.33c0-.18-.1-.39-.16-.62s-.12-.43-.16-.61a.67.67 0 0 0-.15-.33.63.63 0 0 0-.28-.07 1.4 1.4 0 0 0-1.05.48 6.58 6.58 0 0 0-.87 1.15l-.82 1.31a3.66 3.66 0 0 1-.84 1 4.34 4.34 0 0 1-.64-1.63 14.85 14.85 0 0 1-.08-1.63 10.31 10.31 0 0 1 .39-2.88c.26-.92.56-1.84.89-2.78s.64-1.56.9-2.53a19.45 19.45 0 0 0 .39-2.74h-4.82c0-1.64.21-1.79.64-2.35a5.77 5.77 0 0 1 1.59-1.56 7.09 7.09 0 0 1 2.1-.9 10.21 10.21 0 0 1 2.1-.29 20.17 20.17 0 0 1 3 .19c1 .16 2 .3 2.91.47s1.91.32 2.86.46a21 21 0 0 0 2.89.19h2.28a2.55 2.55 0 0 0-1.68-1.35 14.85 14.85 0 0 0-2.51-.44l-2.66-.2c-.89 0-1.59.15-2.17-.2l-3.86-2.17h-.28a13.4 13.4 0 0 0-3.14 0 13.1 13.1 0 0 1-3.12.16 7.33 7.33 0 0 1-3-.69 26.3 26.3 0 0 1-2.61-1.36c-.84-.48-1.76-.94-2.6-1.34a5.08 5.08 0 0 0-2.86-.62v6a12.61 12.61 0 0 0 1.58-.15 5 5 0 0 0 1.87-.84c.31-.2.37-.41.88-.64.12-.07.6-.13.6-.16v2.74l2-.67c0 .12.2.28.21.51s.12.38.12.49a5.51 5.51 0 0 1-1.3 3.85 21.57 21.57 0 0 1-3.23 2.88 22.52 22.52 0 0 0-4.54-1.43c-1.5-.25-3.09-.46-4.74-.66v-7.72c0 .08-1 .25-1.73.53a16.49 16.49 0 0 0-2 1 12.56 12.56 0 0 0-1.89 1.18c-.46.41-.92.81-.92 1.17v6.84a10.23 10.23 0 0 0 2.94-.28 11.81 11.81 0 0 0 1.82-.59 12.2 12.2 0 0 0 1.22-.59 2.63 2.63 0 0 1 1.21-.28h.14a.88.88 0 0 0 .2 0c0 .12.13.35.28.72s.3.79.46 1.23.28.89.38 1.28a4.17 4.17 0 0 1 .18 1 5.06 5.06 0 0 1-.39 1.89 7.08 7.08 0 0 1-1.07 1.79 5.68 5.68 0 0 1-1.56 1.32 3.08 3.08 0 0 1-2.38.48h-.44c-.74-.15-1.73-.31-3-.48a28.69 28.69 0 0 1-3.62-.71 11.9 11.9 0 0 1-3.18-1.29 2.5 2.5 0 0 1-1.43-2v-11.63c0-.12.39-.38.88-.82s1.16-1 1.87-1.59 1.52-1.35 2.36-2.15a25.88 25.88 0 0 0 2.35-2.51 20.29 20.29 0 0 0 1.8-2.63 5.44 5.44 0 0 0 .73-2.56 3.82 3.82 0 0 0-1.16-2.74 11.66 11.66 0 0 0-2.78-2 24 24 0 0 0-3.22-1.41q-1.63-.54-2.51-.89l-1.3-9c-.15-.82-.35-1.71-.61-2.68a11.71 11.71 0 0 0-1.1-2.73 7.14 7.14 0 0 0-1.79-2.17 4.06 4.06 0 0 0-2.63-.87 12.32 12.32 0 0 0-3.6.48 14.74 14.74 0 0 0-3.19 1.48c-.33.23-.87.56-1.63 1l-2.51 1.48c-.94.54-1.91 1.12-2.94 1.74s-2 1.18-2.94 1.73-1.78 1.22-2.51 1.64-1.3 1.1-1.63 1.1h-1c-.46 0-1-.2-1.71-.23a14.55 14.55 0 0 1-2.05-.37 3.42 3.42 0 0 1-1.36-.75c-.46-.31-.35-.8-.35-1.36v-1.86c0-.59-.21-.9 0-.92s.67 0 1.55 0a1.06 1.06 0 0 1 0-.43c.07-.25.09-.51.15-.81s.13-.59.18-.85a.85.85 0 0 0 0-.49 2.39 2.39 0 0 0-.79-.82l-.87-.49a2.4 2.4 0 0 1-.69-.66 2 2 0 0 1-.28-1.23 3.17 3.17 0 0 1 .25-1.17 4.79 4.79 0 0 1 .67-1.15c.28-.36.25-.64.61-.87a3.31 3.31 0 0 1 .81-.33v.77c0 .49.41 1 .56 1.46a1.16 1.16 0 0 0 1.19.72 1.61 1.61 0 0 0 1.09-.48 5.25 5.25 0 0 0 .95-1.12 10.31 10.31 0 0 0 .63-1.62c.15-.44.25.27.25-1.37H22.16a1.86 1.86 0 0 1-.85-.47c-.36-.26-.71-.39-1-.67a6.12 6.12 0 0 1-.9-.79 1.43 1.43 0 0 1-.39-1 4.47 4.47 0 0 1 .98-3.16A7.4 7.4 0 0 1 22.62 99a16.81 16.81 0 0 1 3.16-1 20.69 20.69 0 0 0 2.83-.82c.41-.15 1.15-.46 2.19-.92s2.17-1 3.34-1.54 2.28-1.06 3.3-1.57a10 10 0 0 1 2.17-1.06h13.48a7.34 7.34 0 0 1 3.83 1A13.24 13.24 0 0 1 60 95.54a26.25 26.25 0 0 1 2.51 3.28c.77 1.17 1.53 2.27 2.27 3.27a16.65 16.65 0 0 0 2.22 2.53 3.64 3.64 0 0 0 2.47 1 .82.82 0 0 0 .77-.39.88.88 0 0 1 .84-.39 3.82 3.82 0 0 1 1.5.31c.49.2 1 .44 1.51.71s1 .49 1.51.69a3.88 3.88 0 0 0 1.54.31c1.38 0 2.74-.07 4.08-.2s2.7-.28 4.06-.44 2.73-.33 4.08-.48a36.94 36.94 0 0 1 4.08-.23 64 64 0 0 1 7.23.39 38.5 38.5 0 0 1 7.17 1.56c1.64.56 3.3 1.22 5 2s3.37 1.46 5.06 2.15a45.64 45.64 0 0 0 5.18 1.74 21.18 21.18 0 0 0 5.39.69h1.25c.62 0 1.05-.07 1.31-.07 4.26-.92 8.51-1.82 12.75-2.68s8.48-1.63 12.7-2.27 8.51-1.15 12.8-1.54 8.63-.56 13-.56h3.3c1.79 0 3.62 0 5.46.12a40.43 40.43 0 0 1 5 .92l36.08 7.18h11.6c-.79 0-1.82 1-3.11 1.35a18.16 18.16 0 0 1-3.99.16z"/></svg>